<svg xmlns="http://www.w3.org/2000/svg" width="248" height="40" viewBox="0 0 248 40">
  <defs>
    <style>
      .cls-1 {
        fill: #fff;
      }
    </style>
  </defs>
  <path id="img_footer_logo.svg" class="cls-1" d="M72.1,3.918s-34.332.2-35.446,0.2a2,2,0,0,0-2.035,1.693v5.564c0,1.192,1.286,1.392,2.035,1.392H63.94c-0.087,5.261-3.647,18.284-24.22,18.284-2.465,0-2.338.976-2.338,1.6v5.773c0,1.2.9,1.522,2.081,1.522,5.98,0,19.808-1.344,27.722-10.582,6.315-7.351,6.592-16.4,6.592-23.757A1.426,1.426,0,0,0,72.1,3.918Zm7.059,7.852H97.344c0.929,0,1.207-1.191,1.207-1.787V5.213a1.5,1.5,0,0,0-1.3-1.59s-16.527.1-17.727,0.1a1.422,1.422,0,0,0-1.67,1.281v5.473A1.081,1.081,0,0,0,79.162,11.77ZM97.351,22.711c0.928,0,1.209-1.195,1.209-1.785V16.158a1.5,1.5,0,0,0-1.3-1.6s-16.526.1-17.728,0.1a1.415,1.415,0,0,0-1.665,1.294v5.462a1.078,1.078,0,0,0,1.3,1.3H97.351ZM115.435,7.989h-6.206a1.544,1.544,0,0,0-1.588,1.594c0,4.668-.739,9.56-2.872,12.625-1.584,2.276-3.34,8.445-23.853,8.445a1.572,1.572,0,0,0-1.754,1.4v6.258c0,1.1,1.3,1.188,2.23,1.188H87.6c3.623,0,14.2-.2,21.25-7.656s8.17-14.011,8.17-21.966C117.018,8.093,116.177,7.989,115.435,7.989Zm10.581,7.363a5.267,5.267,0,1,0,0,10.523C133.619,25.875,133.99,15.352,126.016,15.352Zm48.346-1.888V8.488a1.339,1.339,0,0,0-1.493-1.495H160.616A1.367,1.367,0,0,1,159.231,5.7V2.322a1.572,1.572,0,0,0-1.57-1.088h-6.5a1.453,1.453,0,0,0-1.213,1.4V6.109c0,0.593-.556,1.189-1.669,1.189H136.691a1.443,1.443,0,0,0-1.579,1.395v6.061a0.893,0.893,0,0,0,.919.984h12.722c0.837,0,1.3,1.106,1.3,1.9V36.906a1.569,1.569,0,0,0,1.576,1.8h6.591c1.015,0,1.395-1.11,1.395-2.093V17.234c0-.994.365-1.5,1.017-1.5h12.428C173.61,15.737,174.362,14.457,174.362,13.464Zm-28.025,4.468s-5.949.1-6.68,0.1a1.368,1.368,0,0,0-1.205,1.391s-0.094,1.885-.094,2.784-0.75,7.156-3.438,8.539V39.2c1.127-.292,12.526-0.1,12.438-17.39v-2.49A1.174,1.174,0,0,0,146.337,17.933Zm24.768,1.2a1.363,1.363,0,0,0-1.288-1.389H163.6c-0.927,0-1.4.387-1.4,0.982v3.283c0,4.775,1.305,16.208,12.716,16.9V30.653C172.785,28.563,171.105,26.383,171.105,19.13Zm36.935,1.183V14.551a1.353,1.353,0,0,0-1.486-1.388s-26.894.4-27.735,0.4a1.47,1.47,0,0,0-1.487,1.388v5.958c0,1,1.206,1.194,1.768,1.194h27.644A2.046,2.046,0,0,0,208.04,20.313Zm39.067,15.5s-3.613-14.9-4.267-16.388-0.831-2.286-2.5-2.286h-5.665a1.471,1.471,0,0,0-1.388,2.181s1.571,6.868,1.856,7.951,0.09,2.282-1.3,2.188H220.381c-0.837,0-1.114-.8-0.469-1.984,0,0,10.125-18.985,10.868-24.348,0.178-.991,1.019-2.489-1.019-2.489h-7.237c-0.753,0-1.582.4-2.143,1.8,0,0-6.391,17.583-11.78,25.34a6.626,6.626,0,0,0-1.3,2.88v6.162c0,0.9.927,1.494,2.044,1.494h36.923C246.92,38.308,247.385,37.119,247.107,35.812ZM104.684,6.039h4.443A1.161,1.161,0,0,0,110.166,4.7V2.6a1.516,1.516,0,0,0-1.453-1.21h-3.929a1.7,1.7,0,0,0-1.532,1.648V4.926A1.156,1.156,0,0,0,104.684,6.039Zm11.661-4.675h-3.921a1.706,1.706,0,0,0-1.538,1.652V4.9a1.158,1.158,0,0,0,1.436,1.113h4.441A1.152,1.152,0,0,0,117.8,4.675V2.58A1.51,1.51,0,0,0,116.345,1.365ZM4.313,8.525L5.248,9.281c0.084-.464.155-0.945,0.21-1.435C5.485,7.539,5.5,7.313,5.5,7.178l2.192,0.5V7.329a3,3,0,0,0-.112-0.806L9.731,6.675c0.3,0.031.459,0.1,0.459,0.222a0.347,0.347,0,0,1-.156.306,0.283,0.283,0,0,0-.166.18V9.616H10.3l0.99-1.2,1.186,0.976a0.572,0.572,0,0,1,.281.33,0.244,0.244,0,0,1-.265.282H9.869v2.339h0.544L11.56,10.98l1.327,1.09a0.618,0.618,0,0,1,.3.385,0.258,0.258,0,0,1-.316.266H9.914a7.819,7.819,0,0,0,3.223,2.453v0.376a3.417,3.417,0,0,0-1.577,2.83A8.661,8.661,0,0,1,10.4,16.331a18.4,18.4,0,0,1-.533-2.075v4.779a0.329,0.329,0,0,1-.334.266c-0.951.118-1.46,0.181-1.519,0.181-0.217,0-.325-0.167-0.325-0.5V15.8c-0.119.151-.242,0.286-0.361,0.417a10.193,10.193,0,0,1-3.24,2.271l-0.11-.323A10.64,10.64,0,0,0,5.71,15.719a17.486,17.486,0,0,0,1.062-3H6.435c-0.313,0-.634.016-0.95,0.046a1.336,1.336,0,0,1,.073.44,0.954,0.954,0,0,1-.213.6,0.777,0.777,0,0,1-.6.277,0.793,0.793,0,0,1-.575-0.277,1.6,1.6,0,0,1-.306-1.034,2.323,2.323,0,0,0-.211-0.765v6.869c0,0.114-.108.184-0.321,0.225-0.891.1-1.366,0.154-1.42,0.154-0.189,0-.282-0.146-0.282-0.435v-4A10.243,10.243,0,0,1,.167,16.15L0,15.88A36.82,36.82,0,0,0,1.435,9.948a6.427,6.427,0,0,0-1.169.115l-0.21-.6a10.82,10.82,0,0,0,1.465.1H1.632V7.329a2.664,2.664,0,0,0-.111-0.751L3.489,6.706c0.29,0.021.433,0.088,0.433,0.191a0.364,0.364,0,0,1-.139.306,0.238,0.238,0,0,0-.127.18V9.309Zm3.379,3.819V10.006H6.506a12.4,12.4,0,0,1-1.645,1.685l-0.171-.113c0.159-.526.3-1.072,0.421-1.63H3.656V11.3a4.042,4.042,0,0,1,1.511.946c0.018,0.017.029,0.034,0.038,0.04,0.413,0.038.82,0.055,1.23,0.055H7.691Zm0-2.729V8.181a0.188,0.188,0,0,0-.112.081,11.56,11.56,0,0,1-.8,1.354H7.691Zm16.992-.81C24.655,8.777,24.629,8.75,24.6,8.721a1.165,1.165,0,0,1-.265-0.637,1.176,1.176,0,0,0-.181-0.612,2.007,2.007,0,0,0-.587-0.629l0.1-.224a3.978,3.978,0,0,1,2.136.375,1.02,1.02,0,0,1,.544.877,1.116,1.116,0,0,1-.209.655l0.614,0.489a0.616,0.616,0,0,1,.306.391,0.266,0.266,0,0,1-.33.265h-3.8a19.033,19.033,0,0,0,.545,4.14,4.937,4.937,0,0,0,1.506,2.52,1.477,1.477,0,0,0,.6.361,4.85,4.85,0,0,0,.979-1.794l0.277,0.055a5,5,0,0,0-.277,1.63,2.02,2.02,0,0,0,.5,1.48,1.3,1.3,0,0,1-.346.845,1.062,1.062,0,0,1-.908.46,3.91,3.91,0,0,1-2.218-1,7.383,7.383,0,0,1-1.994-3.055,12.46,12.46,0,0,1-.632-2.858,0.272,0.272,0,0,1-.237.1H18.764v3.516c0.866-.1,1.773-0.22,2.722-0.35l0.055,0.323-6.113,2.615a1.031,1.031,0,0,0-.142.282,0.321,0.321,0,0,1-.295.2,0.429,0.429,0,0,1-.275-0.374l-0.547-2.394c0.595,0,1.016-.011,1.259-0.032,0.343-.017.692-0.038,1.05-0.066V12.553H16.193a10.679,10.679,0,0,0-1.522.115l-0.221-.6a13.792,13.792,0,0,0,1.744.108h2.18l1.048-1.307L20.7,11.914a1.25,1.25,0,0,1,.212.2c-0.082-.74-0.141-1.555-0.181-2.438h-4.8a12.076,12.076,0,0,0-1.648.111l-0.211-.6a14.63,14.63,0,0,0,1.859.114h4.787Q20.7,8.612,20.7,7.87a6.074,6.074,0,0,0-.138-1.292l2.32,0.169c0.19,0.007.291,0.075,0.291,0.2a0.345,0.345,0,0,1-.151.293,0.328,0.328,0,0,0-.172.2C22.865,8.1,22.879,8.721,22.9,9.3h1.369ZM4.8,22.778l2.876,0.476a0.327,0.327,0,0,1,.28.279,0.276,0.276,0,0,1-.267.236c-0.1.036-.194,0.073-0.28,0.1a0.526,0.526,0,0,0-.1.128,9.6,9.6,0,0,0,2.011,1.143,21.831,21.831,0,0,0,3.866.961v0.278a2.565,2.565,0,0,0-1.24,2.175,12.577,12.577,0,0,1-3.237-1.882,8.312,8.312,0,0,1-1.758-2.255,16.511,16.511,0,0,1-2.949,2.773c-0.328.211-.653,0.408-0.988,0.58,0.5,0.045,1,.073,1.505.073H7.035L8.18,26.471l1.313,1.1a0.747,0.747,0,0,1,.323.434c0,0.134-.1.207-0.323,0.207H4.523a12.828,12.828,0,0,0-1.634.111l-0.154-.42A12.586,12.586,0,0,1,.21,28.87l-0.1-.156A16.359,16.359,0,0,0,2.8,26.206a14.472,14.472,0,0,0,1.538-2.3A5.975,5.975,0,0,0,4.8,22.778Zm5.89,5.378L12.2,29.412a0.768,0.768,0,0,1,.348.448,0.27,0.27,0,0,1-.334.263H7.441l-3.393,2.87q1.859-.066,5.179-0.248a4.9,4.9,0,0,0-1.157-1.311l0.167-.224a9.051,9.051,0,0,1,3.311,1.2,1.723,1.723,0,0,1,.779,1.365,1.923,1.923,0,0,1-.333,1.087,1.386,1.386,0,0,1-.981.484c-0.6,0-1.018-.467-1.24-1.405a4.706,4.706,0,0,0-.28-0.724l-7.206,2.13c-0.043.049-.1,0.123-0.182,0.225a0.457,0.457,0,0,1-.415.265,0.442,0.442,0,0,1-.255-0.349L0.71,33.008q0.6,0.054,1.358.054c0.157,0,.376,0,0.654-0.013l1.551-2.926H2.666a16.219,16.219,0,0,0-1.859.111L0.6,29.639a19.679,19.679,0,0,0,2.069.109h6.77Zm4.736-5.222,2.151,0.156c0.313,0.013.473,0.094,0.473,0.233a0.269,0.269,0,0,1-.156.224,0.4,0.4,0,0,0-.125.207v1.911l0.714-.488,1.688,1.029a0.389,0.389,0,0,1,.221.32,0.314,0.314,0,0,1-.248.2,0.341,0.341,0,0,0-.237.14c-0.234.249-.454,0.49-0.668,0.723a13.7,13.7,0,0,0,1.534.084H21.32V23.586a2.855,2.855,0,0,0-.1-0.652L23.5,23.1c0.336,0.025.5,0.121,0.5,0.275a0.27,0.27,0,0,1-.18.225,0.405,0.405,0,0,0-.155.21v3.859H24.11l1.034-1.255,1.243,1.019a0.557,0.557,0,0,1,.28.351,0.24,0.24,0,0,1-.267.275H23.664v6.578h0.49l1.2-1.521,1.468,1.218a0.675,0.675,0,0,1,.332.416,0.264,0.264,0,0,1-.319.276H20.289a14.256,14.256,0,0,0-1.8.113l-0.21-.6c0.669,0.065,1.342.1,2.013,0.1H21.32V28.061H20.775a11.494,11.494,0,0,0-1.464.1L19.14,27.7c-0.463.5-.884,0.928-1.257,1.3a4.964,4.964,0,0,1,1.8.877,1.78,1.78,0,0,1,.6,1.282,1.533,1.533,0,0,1-.267.869,1.092,1.092,0,0,1-.767.388q-0.714,0-.979-1.258a4.46,4.46,0,0,0-.5-1.226v5.365a0.323,0.323,0,0,1-.335.267c-0.983.12-1.5,0.178-1.561,0.178-0.223,0-.336-0.165-0.336-0.5V30.945c-0.522.352-1.01,0.663-1.466,0.921L13.9,31.7a25.669,25.669,0,0,0,3.488-5.378H15.652a9.224,9.224,0,0,0-1.315.1l-0.207-.6a9.512,9.512,0,0,0,1.409.111v-2.4A2.119,2.119,0,0,0,15.428,22.934ZM72.1,3.918s-34.332.2-35.446,0.2a2,2,0,0,0-2.035,1.693v5.564c0,1.192,1.286,1.392,2.035,1.392H63.94c-0.087,5.261-3.647,18.284-24.22,18.284-2.465,0-2.338.976-2.338,1.6v5.773c0,1.2.9,1.522,2.081,1.522,5.98,0,19.808-1.344,27.722-10.582,6.315-7.351,6.592-16.4,6.592-23.757A1.426,1.426,0,0,0,72.1,3.918Zm7.059,7.852H97.344c0.929,0,1.207-1.191,1.207-1.787V5.213a1.5,1.5,0,0,0-1.3-1.59s-16.527.1-17.727,0.1a1.422,1.422,0,0,0-1.67,1.281v5.473A1.081,1.081,0,0,0,79.162,11.77ZM97.351,22.711c0.928,0,1.209-1.195,1.209-1.785V16.158a1.5,1.5,0,0,0-1.3-1.6s-16.526.1-17.728,0.1a1.415,1.415,0,0,0-1.665,1.294v5.462a1.078,1.078,0,0,0,1.3,1.3H97.351ZM115.435,7.989h-6.206a1.544,1.544,0,0,0-1.588,1.594c0,4.668-.739,9.56-2.872,12.625-1.584,2.276-3.34,8.445-23.853,8.445a1.572,1.572,0,0,0-1.754,1.4v6.258c0,1.1,1.3,1.188,2.23,1.188H87.6c3.623,0,14.2-.2,21.25-7.656s8.17-14.011,8.17-21.966C117.018,8.093,116.177,7.989,115.435,7.989Zm10.581,7.363a5.267,5.267,0,1,0,0,10.523C133.619,25.875,133.99,15.352,126.016,15.352Zm48.346-1.888V8.488a1.339,1.339,0,0,0-1.493-1.495H160.616A1.367,1.367,0,0,1,159.231,5.7V2.322a1.572,1.572,0,0,0-1.57-1.088h-6.5a1.453,1.453,0,0,0-1.213,1.4V6.109c0,0.593-.556,1.189-1.669,1.189H136.691a1.443,1.443,0,0,0-1.579,1.395v6.061a0.893,0.893,0,0,0,.919.984h12.722c0.837,0,1.3,1.106,1.3,1.9V36.906a1.569,1.569,0,0,0,1.576,1.8h6.591c1.015,0,1.395-1.11,1.395-2.093V17.234c0-.994.365-1.5,1.017-1.5h12.428C173.61,15.737,174.362,14.457,174.362,13.464Zm-28.025,4.468s-5.949.1-6.68,0.1a1.368,1.368,0,0,0-1.205,1.391s-0.094,1.885-.094,2.784-0.75,7.156-3.438,8.539V39.2c1.127-.292,12.526-0.1,12.438-17.39v-2.49A1.174,1.174,0,0,0,146.337,17.933Zm24.768,1.2a1.363,1.363,0,0,0-1.288-1.389H163.6c-0.927,0-1.4.387-1.4,0.982v3.283c0,4.775,1.305,16.208,12.716,16.9V30.653C172.785,28.563,171.105,26.383,171.105,19.13Zm36.935,1.183V14.551a1.353,1.353,0,0,0-1.486-1.388s-26.894.4-27.735,0.4a1.47,1.47,0,0,0-1.487,1.388v5.958c0,1,1.206,1.194,1.768,1.194h27.644A2.046,2.046,0,0,0,208.04,20.313Zm39.067,15.5s-3.613-14.9-4.267-16.388-0.831-2.286-2.5-2.286h-5.665a1.471,1.471,0,0,0-1.388,2.181s1.571,6.868,1.856,7.951,0.09,2.282-1.3,2.188H220.381c-0.837,0-1.114-.8-0.469-1.984,0,0,10.125-18.985,10.868-24.348,0.178-.991,1.019-2.489-1.019-2.489h-7.237c-0.753,0-1.582.4-2.143,1.8,0,0-6.391,17.583-11.78,25.34a6.626,6.626,0,0,0-1.3,2.88v6.162c0,0.9.927,1.494,2.044,1.494h36.923C246.92,38.308,247.385,37.119,247.107,35.812ZM104.684,6.039h4.443A1.161,1.161,0,0,0,110.166,4.7V2.6a1.516,1.516,0,0,0-1.453-1.21h-3.929a1.7,1.7,0,0,0-1.532,1.648V4.926A1.156,1.156,0,0,0,104.684,6.039Zm11.661-4.675h-3.921a1.706,1.706,0,0,0-1.538,1.652V4.9a1.158,1.158,0,0,0,1.436,1.113h4.441A1.152,1.152,0,0,0,117.8,4.675V2.58A1.51,1.51,0,0,0,116.345,1.365ZM4.313,8.525L5.248,9.281c0.084-.464.155-0.945,0.21-1.435C5.485,7.539,5.5,7.313,5.5,7.178l2.192,0.5V7.329a3,3,0,0,0-.112-0.806L9.731,6.675c0.3,0.031.459,0.1,0.459,0.222a0.347,0.347,0,0,1-.156.306,0.283,0.283,0,0,0-.166.18V9.616H10.3l0.99-1.2,1.186,0.976a0.572,0.572,0,0,1,.281.33,0.244,0.244,0,0,1-.265.282H9.869v2.339h0.544L11.56,10.98l1.327,1.09a0.618,0.618,0,0,1,.3.385,0.258,0.258,0,0,1-.316.266H9.914a7.819,7.819,0,0,0,3.223,2.453v0.376a3.417,3.417,0,0,0-1.577,2.83A8.661,8.661,0,0,1,10.4,16.331a18.4,18.4,0,0,1-.533-2.075v4.779a0.329,0.329,0,0,1-.334.266c-0.951.118-1.46,0.181-1.519,0.181-0.217,0-.325-0.167-0.325-0.5V15.8c-0.119.151-.242,0.286-0.361,0.417a10.193,10.193,0,0,1-3.24,2.271l-0.11-.323A10.64,10.64,0,0,0,5.71,15.719a17.486,17.486,0,0,0,1.062-3H6.435c-0.313,0-.634.016-0.95,0.046a1.336,1.336,0,0,1,.073.44,0.954,0.954,0,0,1-.213.6,0.777,0.777,0,0,1-.6.277,0.793,0.793,0,0,1-.575-0.277,1.6,1.6,0,0,1-.306-1.034,2.323,2.323,0,0,0-.211-0.765v6.869c0,0.114-.108.184-0.321,0.225-0.891.1-1.366,0.154-1.42,0.154-0.189,0-.282-0.146-0.282-0.435v-4A10.243,10.243,0,0,1,.167,16.15L0,15.88A36.82,36.82,0,0,0,1.435,9.948a6.427,6.427,0,0,0-1.169.115l-0.21-.6a10.82,10.82,0,0,0,1.465.1H1.632V7.329a2.664,2.664,0,0,0-.111-0.751L3.489,6.706c0.29,0.021.433,0.088,0.433,0.191a0.364,0.364,0,0,1-.139.306,0.238,0.238,0,0,0-.127.18V9.309Zm3.379,3.819V10.006H6.506a12.4,12.4,0,0,1-1.645,1.685l-0.171-.113c0.159-.526.3-1.072,0.421-1.63H3.656V11.3a4.042,4.042,0,0,1,1.511.946c0.018,0.017.029,0.034,0.038,0.04,0.413,0.038.82,0.055,1.23,0.055H7.691Zm0-2.729V8.181a0.188,0.188,0,0,0-.112.081,11.56,11.56,0,0,1-.8,1.354H7.691Zm16.992-.81C24.655,8.777,24.629,8.75,24.6,8.721a1.165,1.165,0,0,1-.265-0.637,1.176,1.176,0,0,0-.181-0.612,2.007,2.007,0,0,0-.587-0.629l0.1-.224a3.978,3.978,0,0,1,2.136.375,1.02,1.02,0,0,1,.544.877,1.116,1.116,0,0,1-.209.655l0.614,0.489a0.616,0.616,0,0,1,.306.391,0.266,0.266,0,0,1-.33.265h-3.8a19.033,19.033,0,0,0,.545,4.14,4.937,4.937,0,0,0,1.506,2.52,1.477,1.477,0,0,0,.6.361,4.85,4.85,0,0,0,.979-1.794l0.277,0.055a5,5,0,0,0-.277,1.63,2.02,2.02,0,0,0,.5,1.48,1.3,1.3,0,0,1-.346.845,1.062,1.062,0,0,1-.908.46,3.91,3.91,0,0,1-2.218-1,7.383,7.383,0,0,1-1.994-3.055,12.46,12.46,0,0,1-.632-2.858,0.272,0.272,0,0,1-.237.1H18.764v3.516c0.866-.1,1.773-0.22,2.722-0.35l0.055,0.323-6.113,2.615a1.031,1.031,0,0,0-.142.282,0.321,0.321,0,0,1-.295.2,0.429,0.429,0,0,1-.275-0.374l-0.547-2.394c0.595,0,1.016-.011,1.259-0.032,0.343-.017.692-0.038,1.05-0.066V12.553H16.193a10.679,10.679,0,0,0-1.522.115l-0.221-.6a13.792,13.792,0,0,0,1.744.108h2.18l1.048-1.307L20.7,11.914a1.25,1.25,0,0,1,.212.2c-0.082-.74-0.141-1.555-0.181-2.438h-4.8a12.076,12.076,0,0,0-1.648.111l-0.211-.6a14.63,14.63,0,0,0,1.859.114h4.787Q20.7,8.612,20.7,7.87a6.074,6.074,0,0,0-.138-1.292l2.32,0.169c0.19,0.007.291,0.075,0.291,0.2a0.345,0.345,0,0,1-.151.293,0.328,0.328,0,0,0-.172.2C22.865,8.1,22.879,8.721,22.9,9.3h1.369ZM4.8,22.778l2.876,0.476a0.327,0.327,0,0,1,.28.279,0.276,0.276,0,0,1-.267.236c-0.1.036-.194,0.073-0.28,0.1a0.526,0.526,0,0,0-.1.128,9.6,9.6,0,0,0,2.011,1.143,21.831,21.831,0,0,0,3.866.961v0.278a2.565,2.565,0,0,0-1.24,2.175,12.577,12.577,0,0,1-3.237-1.882,8.312,8.312,0,0,1-1.758-2.255,16.511,16.511,0,0,1-2.949,2.773c-0.328.211-.653,0.408-0.988,0.58,0.5,0.045,1,.073,1.505.073H7.035L8.18,26.471l1.313,1.1a0.747,0.747,0,0,1,.323.434c0,0.134-.1.207-0.323,0.207H4.523a12.828,12.828,0,0,0-1.634.111l-0.154-.42A12.586,12.586,0,0,1,.21,28.87l-0.1-.156A16.359,16.359,0,0,0,2.8,26.206a14.472,14.472,0,0,0,1.538-2.3A5.975,5.975,0,0,0,4.8,22.778Zm5.89,5.378L12.2,29.412a0.768,0.768,0,0,1,.348.448,0.27,0.27,0,0,1-.334.263H7.441l-3.393,2.87q1.859-.066,5.179-0.248a4.9,4.9,0,0,0-1.157-1.311l0.167-.224a9.051,9.051,0,0,1,3.311,1.2,1.723,1.723,0,0,1,.779,1.365,1.923,1.923,0,0,1-.333,1.087,1.386,1.386,0,0,1-.981.484c-0.6,0-1.018-.467-1.24-1.405a4.706,4.706,0,0,0-.28-0.724l-7.206,2.13c-0.043.049-.1,0.123-0.182,0.225a0.457,0.457,0,0,1-.415.265,0.442,0.442,0,0,1-.255-0.349L0.71,33.008q0.6,0.054,1.358.054c0.157,0,.376,0,0.654-0.013l1.551-2.926H2.666a16.219,16.219,0,0,0-1.859.111L0.6,29.639a19.679,19.679,0,0,0,2.069.109h6.77Zm4.736-5.222,2.151,0.156c0.313,0.013.473,0.094,0.473,0.233a0.269,0.269,0,0,1-.156.224,0.4,0.4,0,0,0-.125.207v1.911l0.714-.488,1.688,1.029a0.389,0.389,0,0,1,.221.32,0.314,0.314,0,0,1-.248.2,0.341,0.341,0,0,0-.237.14c-0.234.249-.454,0.49-0.668,0.723a13.7,13.7,0,0,0,1.534.084H21.32V23.586a2.855,2.855,0,0,0-.1-0.652L23.5,23.1c0.336,0.025.5,0.121,0.5,0.275a0.27,0.27,0,0,1-.18.225,0.405,0.405,0,0,0-.155.21v3.859H24.11l1.034-1.255,1.243,1.019a0.557,0.557,0,0,1,.28.351,0.24,0.24,0,0,1-.267.275H23.664v6.578h0.49l1.2-1.521,1.468,1.218a0.675,0.675,0,0,1,.332.416,0.264,0.264,0,0,1-.319.276H20.289a14.256,14.256,0,0,0-1.8.113l-0.21-.6c0.669,0.065,1.342.1,2.013,0.1H21.32V28.061H20.775a11.494,11.494,0,0,0-1.464.1L19.14,27.7c-0.463.5-.884,0.928-1.257,1.3a4.964,4.964,0,0,1,1.8.877,1.78,1.78,0,0,1,.6,1.282,1.533,1.533,0,0,1-.267.869,1.092,1.092,0,0,1-.767.388q-0.714,0-.979-1.258a4.46,4.46,0,0,0-.5-1.226v5.365a0.323,0.323,0,0,1-.335.267c-0.983.12-1.5,0.178-1.561,0.178-0.223,0-.336-0.165-0.336-0.5V30.945c-0.522.352-1.01,0.663-1.466,0.921L13.9,31.7a25.669,25.669,0,0,0,3.488-5.378H15.652a9.224,9.224,0,0,0-1.315.1l-0.207-.6a9.512,9.512,0,0,0,1.409.111v-2.4A2.119,2.119,0,0,0,15.428,22.934Z"/>
</svg>
